<svg width="510" height="446" viewBox="0 0 510 446" fill="none" xmlns="http://www.w3.org/2000/svg">
<path d="M343.3 167.585C307.219 167.585 270.492 166.119 236.135 156.549C202.425 147.195 171.474 129.047 143.885 108.053C125.823 94.3884 109.399 83.4822 85.9484 85.1203C63.0068 86.3617 41.0683 94.9286 23.3563 109.562C-6.47405 135.685 -1.99087 184.095 9.9499 217.978C27.8826 269.146 82.4567 304.796 128.84 327.859C182.423 354.628 241.308 370.19 300.322 379.113C352.051 387.002 418.523 392.692 463.354 358.939C504.522 327.859 515.816 256.99 505.729 209.141C503.282 195.005 495.755 182.25 484.563 173.275C455.638 152.109 412.488 166.249 379.985 166.938C367.914 167.197 355.629 167.499 343.3 167.585Z" fill="#E8E8E8"/>
<path d="M255.248 445.743C342.645 445.743 413.495 441.324 413.495 435.872C413.495 430.42 342.645 426 255.248 426C167.85 426 97 430.42 97 435.872C97 441.324 167.85 445.743 255.248 445.743Z" fill="#E8E8E8"/>
<path d="M33.4438 72.5324L89.4836 67.7905C96.4717 67.1786 103.458 68.9857 109.273 72.9094C115.088 76.8331 119.378 82.6351 121.426 89.3443L175.138 269.102L164.62 287.94C161.918 292.794 160.585 298.29 160.761 303.842C160.938 309.395 162.617 314.795 165.622 319.467C168.626 324.14 172.842 327.909 177.821 330.374C182.799 332.838 188.353 333.906 193.89 333.462L408.996 315.184" stroke="#7C7C7C" stroke-width="4.31075" stroke-linecap="round" stroke-linejoin="round"/>
<path d="M129.444 116.632L379.468 95.4234C381.931 95.2124 384.41 95.5586 386.721 96.4363C389.031 97.3141 391.115 98.7008 392.817 100.494C394.519 102.287 395.795 104.44 396.551 106.793C397.307 109.147 397.524 111.64 397.185 114.089L380.244 236.385C379.729 240.054 377.996 243.444 375.321 246.008C372.647 248.573 369.188 250.163 365.501 250.524L175.138 269.103L129.444 116.632Z" fill="white" stroke="#7C7C7C" stroke-width="4.31075" stroke-linecap="round" stroke-linejoin="round"/>
<path d="M217.815 374.672C229.028 374.672 238.119 365.581 238.119 354.368C238.119 343.155 229.028 334.064 217.815 334.064C206.602 334.064 197.511 343.155 197.511 354.368C197.511 365.581 206.602 374.672 217.815 374.672Z" fill="white" stroke="#7C7C7C" stroke-width="4.31075" stroke-linecap="round" stroke-linejoin="round"/>
<path d="M359.206 362.689C370.42 362.689 379.51 353.599 379.51 342.385C379.51 331.172 370.42 322.082 359.206 322.082C347.993 322.082 338.903 331.172 338.903 342.385C338.903 353.599 347.993 362.689 359.206 362.689Z" fill="white" stroke="#7C7C7C" stroke-width="4.31075" stroke-linecap="round" stroke-linejoin="round"/>
<path d="M77.821 62.9358L24.9887 67.4187C20.4103 67.8071 17.0137 71.8336 17.4021 76.412C17.7906 80.9904 21.8171 84.3871 26.3955 83.9986L79.2279 79.5157C83.8063 79.1272 87.2029 75.1007 86.8144 70.5223C86.4259 65.9439 82.3995 62.5473 77.821 62.9358Z" fill="#C7C5D0"/>
<path d="M234.712 211.08C235.743 203.212 239.433 195.934 245.169 190.451C250.905 184.969 258.343 181.612 266.249 180.938C274.155 180.264 282.054 182.312 288.635 186.744C295.217 191.176 300.086 197.724 302.434 205.303" stroke="#7C7C7C" stroke-width="4.31075" stroke-linecap="round" stroke-linejoin="round"/>
<path d="M302.995 164.568C305.661 164.568 307.823 162.406 307.823 159.74C307.823 157.073 305.661 154.912 302.995 154.912C300.328 154.912 298.167 157.073 298.167 159.74C298.167 162.406 300.328 164.568 302.995 164.568Z" fill="#7C7C7C"/>
<path d="M226.479 171.034C229.145 171.034 231.307 168.872 231.307 166.206C231.307 163.54 229.145 161.378 226.479 161.378C223.812 161.378 221.651 163.54 221.651 166.206C221.651 168.872 223.812 171.034 226.479 171.034Z" fill="#7C7C7C"/>
<path d="M90.4751 348.378V366.957" stroke="#7C7C7C" stroke-width="4.31075" stroke-linecap="round" stroke-linejoin="round"/>
<path d="M81.2073 357.646H99.7435" stroke="#7C7C7C" stroke-width="4.31075" stroke-linecap="round" stroke-linejoin="round"/>
<path d="M386.666 3V21.5362" stroke="#7C7C7C" stroke-width="4.31075" stroke-linecap="round" stroke-linejoin="round"/>
<path d="M377.399 12.2676H395.935" stroke="#7C7C7C" stroke-width="4.31075" stroke-linecap="round" stroke-linejoin="round"/>
<path d="M167.207 58.3936V76.9298" stroke="#7C7C7C" stroke-width="4.31075" stroke-linecap="round" stroke-linejoin="round"/>
<path d="M157.895 67.6611H176.474" stroke="#7C7C7C" stroke-width="4.31075" stroke-linecap="round" stroke-linejoin="round"/>
<path d="M432.92 126.546C435.349 126.546 437.317 124.578 437.317 122.149C437.317 119.721 435.349 117.752 432.92 117.752C430.492 117.752 428.523 119.721 428.523 122.149C428.523 124.578 430.492 126.546 432.92 126.546Z" fill="white" stroke="#7C7C7C" stroke-width="4.31075" stroke-linecap="round" stroke-linejoin="round"/>
<path d="M268.596 87.0155C270.929 87.0155 272.82 85.1241 272.82 82.7909C272.82 80.4578 270.929 78.5664 268.596 78.5664C266.262 78.5664 264.371 80.4578 264.371 82.7909C264.371 85.1241 266.262 87.0155 268.596 87.0155Z" fill="#C7C5D0"/>
<path d="M296.959 393.597C299.293 393.597 301.184 391.705 301.184 389.372C301.184 387.039 299.293 385.147 296.959 385.147C294.626 385.147 292.735 387.039 292.735 389.372C292.735 391.705 294.626 393.597 296.959 393.597Z" fill="#C7C5D0"/>
</svg>
